/* XPM */
static const char *collectible[] = {
/* columns rows colors chars-per-pixel */
"50 50 5 1 ",
"  c #071821",
". c #37946E",
"X c #86C06C",
"o c #E0F8CF",
"O c white",
/* pixels */
"XXXXXXXXXXXXXXXXXXXXXXXXXXXXXXXXXXXXXXXXXXXXXXXXXX",
"XXX..XXXXXXXXXXXXXXXXXXXXXXXXXXXXXXXXXXXXXXXXXXXXX",
"X....X..XXXXXXXXXXXXXXXXXXXXXXXXXXXXXXXXXXXXXXXXXX",
"X....X..XXXXXXXXXXXXXXXXXXXXXXXXXXXXXXXXXXXXXXXXXX",
"X..XXX..XXXXXXXXXXXXXXXXXXXXXXXXXXXXXXXXXXXXXXXXXX",
"X..XXX..XXXXXXXXXXXXXXXXXXXXXXXXXXXXXXXXXXXXXXXXXX",
"X....X..XXXXXXXXXXXXXXXXXXXXXXXXXXXXXXXXXXXXXXXXXX",
"X....X..XXXXXXXXXXXXXXXXXXXXXXXXXXXXXXXXXXXXXXXXXX",
"X....X..XXXXXXXXXXXXXXXXXXXXXXXXXXXXXXXXXXXXXXXXXX",
"XXX..X..XXXXXXXXXXXXXXXXXXXXXXXXXXXXXXXXXXXXXXXXXX",
"XXXXXXXXXXXX..XXXXXXXXXXXXXXXXXXXOOOOXXXXXXXXXXXXX",
"XXXXXXXXXXXX...XXXXXXXXXXXXXX     OOOOOXXXXXXXXXXX",
"XXXXXXXXXXXX...XXX..XXXXXX         ..OOXXXXXXXXXXX",
"XXXXXXXXXXXXX..XXX..XXXXX    ooooo  .OOXXXXXXXXXXX",
"XXXXXXXXXXXXX..XXX..XXXXX   oooooo  OOOXXXXXXXXXXX",
"XXXXXXXXXXXXX..X....XXXXX   XooXXX   ..XXXXXXXXXXX",
"XXXXXXXXX..XX..X....XXX  oooXXXXXXXX  .XXXXXXXXXXX",
"XXXXXXXXX...X..X....XXX  ooooXXXXXXX  XXXXXXXXXXXX",
"XXXXXXXXX.             oooXXooooX     .XXXXXXXXXXX",
"XXXXXXXXXX             oooooooXXX     .XXXXXXXXXXX",
"XXXXXXXXX  ooooooooooooooXoooXXooXX   XXXXXXXXXXXX",
"XXXXXXXXX  ooooooooooooooXoooXXooXX   XXXXXXXXXXXX",
"XXXXXXXXX  ooooooooooXXXXXoooXoooXX   XXXXXXXXXXXX",
"XXXXXXXXXX  ooooooooXXXXXooXXooooXX   XXXXXXXXXXXX",
"XXXXXXXXXX      XXXXXoooooXXXooooXX   XXXXXXXXXXXX",
"XXXXXXXXXX      oooooooooXoooooooXX   XXXXXXXXXXXX",
"XXXXXXXXX  ooooooooooooXoooooooooXX   XXXXXXXXXXXX",
"XXXXXXXXX  ooooooooooooXoooooooooXX   XXXXXXXXXXXX",
"XXXXXXXXX  oooooooooXXXXoooooooooXX   XXXXXXXXXXXX",
"XXXXXXXXX   XXXXXXXoXXXXoooooooXXX  XXXXXXXXXXXXXX",
"XXXXXXXXXX  XXXXXooooooooooooXXXXX  XXXXXXXXXXXXXX",
"XXXXXXXXXXX   ooooooooooooooXXX   XXXXXXXXXXXXXXXX",
"XXXXXXXXXX    ooooooooooooooXX    XXXXXXXXXXXXXXXX",
"XXXXXXXXXX    ooooooooooooooXX    XXXXXXXXXXXXXXXX",
"XXXXXXXXXX  ooXXoooooooooXXX     .XXXXXXXXXXXXXXXX",
"XXXXXXXXXXX   XXXXXXXXXXXXXX   X..XXXXXXXXXXXXXXXX",
"XXXXXXXXXXX     XXXXXXXXX    XXX..XXXXXXXXXXXXXXXX",
"XXXXXXXXXXXXX.               XXX..XX..XXXXXXXXXXXX",
"XXXXXXXXXXXXXXXX         XXXX..X..XX..XXXXXXXXXXXX",
"XXXXXXXXXXXXXXXX         XXXX..X..XX..XXXXXXXXXXXX",
"XXXXXXXXXXXXXXXXXXXXXXXXXXXXX.....XX..XXXXXXXXXXXX",
"XX..XXXXXXXXXXXXXXXXXXXXXXXXX....XXXXXXXXXXXXXXXXX",
"XX..XXXXXXXXXXXXXXXXXXXXXXXXXXX..XXXXXXXXXXXXXXXXX",
"....XXXXXXXXXXXXXXXXXXXXXXXXXXXXXXXXXXXXXXXXXXXXXX",
".....XX..XXXXXXXXXXXXXXXXXXXXXXXXXXXXXXXXXXXXXXXXX",
"..X..XX...XXXXXXXXXXXXXXXXXXXXXXXXXXXXXXXXXXXXXXXX",
"XXX..XX.....XXXXXXXXXXXXXXXXXXXXXXXXXXXXXXXXXXXXXX",
"XXXXX..X.......XXXXXXXXXXXXXXXXXXXXXXXXXXXXXXXXXXX",
"XXXXX..X.......XXXXXXXXXXXXXXXXXXXXXXXXXXXXXXXXXXX",
"XXXXX..X......XXXXXXXXXXXXXXXXXXXXXXXXXXXXXXXXXXXX"
};
