/* XPM */
static const char *exit2[] = {
/* columns rows colors chars-per-pixel */
"50 50 9 1 ",
"  c #0B2301",
". c #112C05",
"X c #173907",
"o c #071821",
"O c #1D460A",
"+ c #255411",
"@ c #316E16",
"# c #37946E",
"$ c #86C06C",
/* pixels */
"$$$$$$$$$$$$$$$$$$$$$$$$$$$$$$$$$$$$$$$$$$$$$$$$$$",
"$$$##$$$$$$$$$$$$$$$$$$$$$$$$$$$$$$$$$$$$$$$$$$$$$",
"$####$##$$$$$$$$$$$$$$$$$$$$$$$$$$$$$$$$$$$$$$$$$$",
"$####$##$$$$$$$$$$$$$$$$$$$$$$$$$$$$$$$$$$$$$$$$$$",
"$##$$$##$$$$$$$$$$$$$$$$$$$$$$$$$$$$$$$$$$$$$$$$$$",
"$##$$$##ooooooooooooooooooooooooooooooooooo$$$$$$$",
"$####$##ooooooooooooooooooooooooooooooooooo$$$$$$$",
"$####$oo@@@@@@@@@@@@@@@@@@@@@@@@@@@@@@@@@@@oo$$$$$",
"$####$oo@@@@@$$@@@@@@@@@@@@@@@@@@@@@$$@@@@@oo$$$$$",
"$$$##$oo@@@@@$$@@@@@@@@@@@@@@@@@@@@@$$@@@@@oo$$$$$",
"$$$$$$oo@@@++++$$$$$$$$$$$$$$$$$$$$$++++@@@oo$$$$$",
"$$$$$$oo@@@++++$$+++++++++++++++++$$++++@@@oo$$$$$",
"$$$$$$oo@@@++++++$$++++++++++++++$$+++++@@@oo$$$$$",
"$$$$$$oo@@@++++OO$$OOOOOOOOOOOOOO$$OO+++@@@oo$$$$$",
"$$$$$$oo@@@++++OOOO$$$$$$$$$$$$$$$OOO+++@@@oo$$$$$",
"$$$$$$oo@@@++++OOOO$$OOOOOOOOOOO$$OOO+++@@@oo$$$$$",
"$$$$$$oo@@@++++OOOXXX$XXXXXXXXXX$XXOO+++@@@oo$$$$$",
"$$$$$$oo@@@++++OOOXXXX$$$$$$$$$$XXXOO+++@@@oo$$$$$",
"$$$$$$oo@@@++++OOOXXXXX$XXXXXXX$XXXOO+++@@@oo$$$$$",
"$$$$$$oo@@@++++OOOXXXX..$$$$$$$$.XXOO+++@@@oo$$$$$",
"$$$$$$oo@@@++++OOOXXXX...$....$..XXOO+++@@@oo$$$$$",
"$$$$$$oo@@@++++OOOXXXX..  $$$$$ .XXOO+++@@@oo$$$$$",
"$$$$$$oo@@@++++OOOXXXX..  $$$$$ .XXOO+++@@@oo$$$$$",
"$$$$$$oo@@@++++OOOXXXX..  $$$$$ .XXOO+++@@@oo$$$$$",
"$$$$$$oo@@@++++OOOXXXX..  $$$$$ .XXOO+++@@@oo$$$$$",
"$$$$$$oo@@@++++OOOXXXX..  $$$$$ .XXOO+++@@@oo$$$$$",
"$$$$$$oo@@@++++OOOXXXX..        .XXOO+++@@@oo$$$$$",
"$$$$$$oo@@@++++OOOXXXX..        .XXOO+++@@@oo$$$$$",
"$$$$$$oo@@@++++OOOXXXX...........XXOO+++@@@oo$$$$$",
"$$$$$$oo@@@++++OOOXXXX...........XXOO+++@@@oo$$$$$",
"$$$$$$oo@@@++++OOOXXXXXXXXXXXXXXXXXOO+++@@@oo$$$$$",
"$$$$$$oo@@@++++OOOXXXXXXXXXXXXXXXXXOO+++@@@oo$$$$$",
"$$$$$$oo@@@++++OOOXXXXXXXXXXXXXXXXXOO+++@@@oo$$$$$",
"$$$$$$oo@@@++++OOOOOOOOOOOOOOOOOOOOOO+++@@@oo$$$$$",
"$$$$$$oo@@@++++OOOOOOOOOOOOOOOOOOOOOO+++@@@oo$$$$$",
"$$$$$$oo@@@++++OOOOOOOOOOOOOOOOOOOOOO+++@@@oo$$$$$",
"$$$$$$oo@@@+++++++++++++++++++++++++++++@@@oo$$$$$",
"$$$$$$oo@@@+++++++++++++++++++++++++++++@@@oo$$$$$",
"$$$$$$oo@@@+++++++++++++++++++++++++++++@@@oo$$$$$",
"$$$$$$oo@@@+++++++++++++++++++++++++++++@@@oo$$$$$",
"$$$$$$oo@@@@@@@@@@@@@@@@@@@@@@@@@@@@@@@@@@@oo$$$$$",
"$$##$$oo@@@@@@@@@@@@@@@@@@@@@@@@@@@@@@@@@@@oo$$$$$",
"$$##$$oo@@@@@@@@@@@@@@@@@@@@@@@@@@@@@@@@@@@oo$$$$$",
"####$$$$ooooooooooooooooooooooooooooooooooo$$$$$$$",
"#####$$#ooooooooooooooooooooooooooooooooooo$$$$$$$",
"##$##$$###$$$$$$$$$$$$$$$$$$$$$$$$$$$$$$$$$$$$$$$$",
"$$$##$$#####$$$$$$$$$$$$$$$$$$$$$$$$$$$$$$$$$$$$$$",
"$$$$$##$#######$$$$$$$$$$$$$$$$$$$$$$$$$$$$$$$$$$$",
"$$$$$##$#######$$$$$$$$$$$$$$$$$$$$$$$$$$$$$$$$$$$",
"$$$$$##$######$$$$$$$$$$$$$$$$$$$$$$$$$$$$$$$$$$$$"
};
