/* XPM */
static const char *exit[] = {
/* columns rows colors chars-per-pixel */
"50 50 5 1 ",
"  c #071821",
". c #316E16",
"X c #37946E",
"o c #65B441",
"O c #86C06C",
/* pixels */
"OOOOOOOOOOOOOOOOOOOOOOOOOOOOOOOOOOOOOOOOOOOOOOOOOO",
"OOOXXOOOOOOOOOOOOOOOOOOOOOOOOOOOOOOOOOOOOOOOOOOOOO",
"OXXXXOXXOOOOOOOOOOOOOOOOOOOOOOOOOOOOOOOOOOOOOOOOOO",
"OXXXXOXXOOOOOOOOOOOOOOOOOOOOOOOOOOOOOOOOOOOOOOOOOO",
"OXXOOOXXOOOOOOOOOOOOOOOOOOOOOOOOOOOOOOOOOOOOOOOOOO",
"OXXOOOXX                                   OOOOOOO",
"OXXXXOXX                                   OOOOOOO",
"OXXXXO  ..oo...........................oo..  OOOOO",
"OXXXXO  ..oo...........................oo..  OOOOO",
"OOOXXO  ooooooooooooooooooooooooooooooooooo  OOOOO",
"OOOOOO  ooooooooooooooooooooooooooooooooooo  OOOOO",
"OOOOOO  ..ooOOOOOOOOOOOOOOOOOOOOOOOOOOOoo..  OOOOO",
"OOOOOO  ..ooOOOOOOOOOOOOOOOOOOOOOOOOOOOoo..  OOOOO",
"OOOOOO  ..OOoooooooooooooooooooooooooooOO..  OOOOO",
"OOOOOO  ..OOoooooooooooooooooooooooooooOO..  OOOOO",
"OOOOOO  ..OOoooooooooooooooooooooooooooOO..  OOOOO",
"OOOOOO  ..OOooo......OOOoooo......OOOooOO..  OOOOO",
"OOOOOO  ..OOooo......OOOoooo......OOOooOO..  OOOOO",
"OOOOOO  ..OOooo..OOOOOOOoooo..OOOOOOOooOO..  OOOOO",
"OOOOOO  ..OOooo..OOOOOOOoooo..OOOOOOOooOO..  OOOOO",
"OOOOOO  ..OOooo..OOOOOOOoooo..OOOOOOOooOO..  OOOOO",
"OOOOOO  ..OOooo..OOOOOOOoooo..OOOOOOOooOO..  OOOOO",
"OOOOOO  ..OOooo..OOOOOOOoooo..OOOOOOOooOO..  OOOOO",
"OOOOOO  ..OOoooooooooooooooooooooooooooOO..  OOOOO",
"OOOOOO  ..OOoooooooooooooooooooooooooooOO..  OOOOO",
"OOOOOO  ..OOoooooooooooooooooooooooooooOO..  OOOOO",
"OOOOOO  ..OOooo......OOOoooo......OOOooOO..  OOOOO",
"OOOOOO  ..OOooo......OOOoooo......OOOooOO..  OOOOO",
"OOOOOO  ..OOooo..OOOOOOOoooo..OOOOOOOooOO..  OOOOO",
"OOOOOO  ..OOooo..OOOOOOOoooo..OOOOOOOooOO..  OOOOO",
"OOOOOO  ..OOooo..OOOOOOOoooo..OOOOOOOooOO..  OOOOO",
"OOOOOO  ..OOooo..OOOOOOOoooo..OOOOOOOooOO..  OOOOO",
"OOOOOO  ..OOooo..OOOOOOOoooo..OOOOOOOooOO..  OOOOO",
"OOOOOO  ..OOooo..OOOOOOOoooo..OOOOOOOooOO..  OOOOO",
"OOOOOO  ..OOoooooooooooooooooooooooooooOO..  OOOOO",
"OOOOOO  ..OOoooo    o  oo  o        oooOO..  OOOOO",
"OOOOOO  ..OOoooo    o  oo  o        oooOO..  OOOOO",
"OOOOOO  ..ooOOOO  OOOOO  OOO  OO  OOOOOoo..  OOOOO",
"OOOOOO  ..ooOOOO   OOOO  OOO  OO  OOOOOoo..  OOOOO",
"OOOOOO  oooooooo    o  oo  o  oo  ooooooooo  OOOOO",
"OOOOOO  oooooooo    o  oo  o  oo  ooooooooo  OOOOO",
"OOXXOO  ..oo...........................oo..  OOOOO",
"OOXXOO  ..oo...........................oo..  OOOOO",
"XXXXOOOO                                   OOOOOOO",
"XXXXXOOX                                   OOOOOOO",
"XXOXXOOXXXOOOOOOOOOOOOOOOOOOOOOOOOOOOOOOOOOOOOOOOO",
"OOOXXOOXXXXXOOOOOOOOOOOOOOOOOOOOOOOOOOOOOOOOOOOOOO",
"OOOOOXXOXXXXXXXOOOOOOOOOOOOOOOOOOOOOOOOOOOOOOOOOOO",
"OOOOOXXOXXXXXXXOOOOOOOOOOOOOOOOOOOOOOOOOOOOOOOOOOO",
"OOOOOXXOXXXXXXOOOOOOOOOOOOOOOOOOOOOOOOOOOOOOOOOOOO"
};
