/* XPM */
static const char *player_up_3[] = {
/* columns rows colors chars-per-pixel */
"50 50 3 1 ",
"  c #071821",
". c #86C06C",
"X c #E0F8CF",
/* pixels */
"..................................................",
"..................................................",
"..................................................",
"..................................................",
"................                   ...............",
"................                   ...............",
"................                   ...............",
".............   ...................   ............",
".............   ...................   ............",
".............   ...................   ............",
"..........   .........................   .........",
"..........   .........................   .........",
"..........   .........................   .........",
"..........   .........................   .........",
"..........   .........................   .........",
"..........   .........................   .........",
".......   XXX.........................XXX   ......",
".......   XXX.........................XXX   ......",
".......   XXX.........................XXX   ......",
".......   XXX.........................XXX   ......",
".......   XXX.........................XXX   ......",
".......   XXX.........................XXX   ......",
"..........   .........................   .........",
"..........   .........................   .........",
"..........   .........................   .........",
".............   ...................   ............",
".............   ...................   ............",
".............   ...................   ............",
".............   ...................   ............",
"..........   ...      .......      ...   .........",
"..........   ...      .......      ...   .........",
"..........   ...      .......      ...   .........",
".......   ...............................   ......",
".......   ...............................   ......",
".......   ...............................   ......",
"....   ......   ...................   ......   ...",
"....   ......   ...................   ......   ...",
"....   ......   ...................   ......   ...",
"....   ...XXX   ...................   XXX...   ...",
"....   ...XXX   ...................   XXX...   ...",
"....   ...XXX   ...................   XXX...   ...",
".......         ...................         ......",
".......         ...................         ......",
".......         ...................         ......",
".............   ......       ......   ............",
".............   ......       ......   ............",
".............   ......       ......   ............",
".............   ......       ......   ............",
".............   ......       ......   ............",
".............   ......       ......   ............"
};
