/* XPM */
static const char *player_down_2[] = {
/* columns rows colors chars-per-pixel */
"50 50 3 1 ",
"  c #071821",
". c #86C06C",
"X c #E0F8CF",
/* pixels */
"................                   ...............",
"................                   ...............",
"................                   ...............",
"................                   ...............",
".............   ...................   ............",
".............   ...................   ............",
".............   ...................   ............",
"..........   .........................   .........",
"..........   .........................   .........",
"..........   .........................   .........",
"..........   ...      .......      ...   .........",
"..........   ...      .......      ...   .........",
"..........   ...      .......      ...   .........",
".......   XXX   XXXXXX.......XXXXXX   XXX   ......",
".......   XXX   XXXXXX.......XXXXXX   XXX   ......",
".......   XXX   XXXXXX.......XXXXXX   XXX   ......",
".......   XXX...XXX   XXXXXXX   XXX...XXX   ......",
".......   XXX...XXX   XXXXXXX   XXX...XXX   ......",
".......   XXX...XXX   XXXXXXX   XXX...XXX   ......",
"..........   ...XXX   XXXXXXX   XXX...   .........",
"..........   ...XXX   XXXXXXX   XXX...   .........",
"..........   ...XXX   XXXXXXX   XXX...   .........",
".............   ...XXXXXXXXXXXXX...   ............",
".............   ...XXXXXXXXXXXXX...   ............",
".............   ...XXXXXXXXXXXXX...   ............",
"..........   ...                   ...   .........",
"..........   ...                   ...   .........",
"..........   ...                   ...   .........",
"..........   ...                   ...   .........",
".......   .........XXXXXXXXXXXXX.........   ......",
".......   .........XXXXXXXXXXXXX.........   ......",
".......   .........XXXXXXXXXXXXX.........   ......",
".......   XXX   ......XXXXXXX...   ......   ......",
".......   XXX   ......XXXXXXX...   ......   ......",
".......   XXX   ......XXXXXXX...   ......   ......",
"..........            ..........   XXX...   ......",
"..........            ..........   XXX...   ......",
"..........            ..........   XXX...   ......",
".............   XXXXXX   .......         .........",
".............   XXXXXX   .......         .........",
".............   XXXXXX   .......         .........",
".............   ......             ...............",
".............   ......             ...............",
".............   ......             ...............",
"................                ..................",
"................                ..................",
"................                ..................",
"..................................................",
"..................................................",
".................................................."
};
