/* XPM */
static const char *player_left_4[] = {
/* columns rows colors chars-per-pixel */
"50 50 3 1 ",
"  c #071821",
". c #86C06C",
"X c #E0F8CF",
/* pixels */
".............                   ..................",
".............                   ..................",
".............                   ..................",
".............                   ..................",
"..........   ...................   ...............",
"..........   ...................   ...............",
"..........   ...................   ...............",
".......   .........................   ............",
".......   .........................   ............",
".......   .........................   ............",
".......   ...      ................   ............",
".......   ...      ................   ............",
".......   ...      ................   ............",
".......   ...XXXXXX   ...XXXXXXX...   ............",
".......   ...XXXXXX   ...XXXXXXX...   ............",
".......   ...XXXXXX   ...XXXXXXX...   ............",
".......   XXX   XXXXXX...XXXXXXX...   ............",
".......   XXX   XXXXXX...XXXXXXX...   ............",
".......   XXX   XXXXXX...XXXXXXX...   ............",
".......   XXX   XXXXXX...XXXX......   ............",
".......   XXX   XXXXXX...XXXX......   ............",
".......   XXX   XXXXXX...XXXX......   ............",
"..........   XXXXXX.............      ............",
"..........   XXXXXX.............      ............",
"..........   XXXXXX.............      ............",
"..........                      ......   .........",
"..........                      ......   .........",
"..........                      ......   .........",
"..........                      ......   .........",
"..........   XXX   XXXXXX................   ......",
"..........   XXX   XXXXXX................   ......",
"..........   XXX   XXXXXX................   ......",
".............      XXX..........   XXX...   ......",
".............      XXX..........   XXX...   ......",
".............      XXX..........   XXX...   ......",
".............            .......         .........",
".............            .......         .........",
".............            .......         .........",
".............   XXX.............   XXX   .........",
".............   XXX.............   XXX   .........",
".............   XXX.............   XXX   .........",
"................   XXX...             ............",
"................   XXX...             ............",
"................   XXX...             ............",
"...................      .........................",
"...................      .........................",
"...................      .........................",
"..................................................",
"..................................................",
".................................................."
};
