/* XPM */
static const char *player_right_1[] = {
/* columns rows colors chars-per-pixel */
"50 50 3 1 ",
"  c #071821",
". c #86C06C",
"X c #E0F8CF",
/* pixels */
"..................................................",
"..................................................",
"..................................................",
"..................................................",
"...................                   ............",
"...................                   ............",
"...................                   ............",
"................   ...................   .........",
"................   ...................   .........",
"................   ...................   .........",
".............   .........................   ......",
".............   .........................   ......",
".............   .........................   ......",
".............   ................      ...   ......",
".............   ................      ...   ......",
".............   ................      ...   ......",
".............   ...XXXXXX....   XXXXXX...   ......",
".............   ...XXXXXX....   XXXXXX...   ......",
".............   ...XXXXXX....   XXXXXX...   ......",
".............   ...XXXXXX....XXXXXX   XXX   ......",
".............   ...XXXXXX....XXXXXX   XXX   ......",
".............   ...XXXXXX....XXXXXX   XXX   ......",
".............   ......XXX....XXXXXX   XXX   ......",
".............   ......XXX....XXXXXX   XXX   ......",
".............   ......XXX....XXXXXX   XXX   ......",
"................   .............XXXXXX   .........",
"................   .............XXXXXX   .........",
"................   .............XXXXXX   .........",
"................   .............XXXXXX   .........",
"...................                   ............",
"...................                   ............",
"...................                   ............",
"...................   .......XXXXXX   ............",
"...................   .......XXXXXX   ............",
"...................   .......XXXXXX   ............",
"...................   .......   XXX   ............",
"...................   .......   XXX   ............",
"...................   .......   XXX   ............",
"...................   ...XXXX   ...   ............",
"...................   ...XXXX   ...   ............",
"...................   ...XXXX   ...   ............",
"......................       ......   ............",
"......................       ......   ............",
"......................       ......   ............",
"......................   .......      ............",
"......................   .......      ............",
"......................   .......      ............",
"......................   XXXXXXX      ............",
"......................   XXXXXXX      ............",
"......................   XXXXXXX      ............"
};
