/* XPM */
static const char *tile1[] = {
/* columns rows colors chars-per-pixel */
"50 50 3 1 ",
"  c #37946E",
". c #86C06C",
"X c white",
/* pixels */
"..................................................",
"...  .............................................",
".    .  ..........................................",
".    .  ..........................................",
".  ...  ..........................................",
".  ...  ..........................................",
".    .  ..........................................",
".    .  ..........................................",
".    .  ..........................................",
"...  .  ..........................................",
"............  ...................XXXX.............",
"............   ................XXXXXXXX...........",
"............   ...  ...........XX    XX...........",
".............  ...  ...........XX    XX...........",
".............  ...  ...........XXXXXXXX...........",
".............  .    ...........  XXXX  ...........",
".........  ..  .    ...........        ...........",
".........   .  .    .............    .............",
".........   .  .    ..............  .  ...........",
"..........  ......................  .  ...........",
"..........  ......................  ..............",
"..................................................",
"..................................................",
"..................................................",
"..................................................",
"..................................................",
"..................................................",
"............XXXX..................................",
"..........XXXXXXXX................................",
"..........XX    XX................................",
"..........XX    XX................................",
"..........XXXXXXXX................................",
"..........  XXXX  ................................",
"..........        ................................",
"............     ...............  ................",
".............    ...............  ................",
".............  .................  ................",
".............  .................  ..  ............",
".............................  .  ..  ............",
".............................  .  ..  ............",
".............................     ..  ............",
"..  .........................    .................",
"..  ...........................  .................",
"    ..............................................",
"     ..  .........................................",
"  .  ..   ........................................",
"...  ..     ......................................",
".....  .       ...................................",
".....  .       ...................................",
".....  .      ...................................."
};
