/* XPM */
static const char *wall[] = {
/* columns rows colors chars-per-pixel */
"50 50 3 1 ",
"  c #071821",
". c #306850",
"X c #86C06C",
/* pixels */
"XXXXXXXXXXXXX                         XXXXXXXXXXXX",
"XXXXXXXXXXXXX                         XXXXXXXXXXXX",
"XXXXXXXXXXX   ..XXXXXXXXXXXXXXXXXX..   XXXXXXXXXXX",
"XXXXXXXX     .XXXXX.XXXXXXXXXX.XXXXX..    XXXXXXXX",
"XXXXXXXX     .XXXXX.XXXXXXXXXX.XXXXX..    XXXXXXXX",
"XXXXXX  .XXXX       XXXXXXXXXX        XXX.  XXXXXX",
"XXXXX ..XXXXXXXXXXX.          .XXXXXXXXXXX.. XXXXX",
"XXXXX ..XXXXXXXXXXX.          .XXXXXXXXXXX.. XXXXX",
"XXXXX ..XXXXXX..XXXXXXXXXXXXXXXXXX..XXXXXX.. XXXXX",
"XXX  .  .XXXX.  XXXXXXX    XXXXXXX  ..XXX.  .  XXX",
"XXX  .  .XXXX.  XXXXXXX    XXXXXXX  ..XXX.  .  XXX",
"XX ..X..      .. XXXXX .... XXXXX ..      ..X.. XX",
"   XXXXXXXXXXXXX.     .XXXX.     .XXXXXXXXXXXXX   ",
"   XXXXXXXXXXXXX.     .XXXX.     .XXXXXXXXXXXXX   ",
"  .XXXXXX..XXXXXXXXXXXXXXXXXXXXXXXXXXXX..XXXXXX.  ",
"  .XXXXXX..XXXXXXXXXXXXXXXXXXXXXXXXXXXX..XXXXXX.  ",
"   ..XXX.XXXXXXXXXXXXXXXXXXXXXXXXXXXXXXXX.XXX..   ",
"         XXXXXXXX..XXXXXXXXXXXX..XXXXXXXX         ",
"         XXXXXXXX..XXXXXXXXXXXX..XXXXXXXX         ",
"   XXX...  XXXXX.   XXXXXXXXXX   .XXXXX  ...XXX   ",
"  .XXXXXX..      XX ..XXXXXX.. XX      ..XXXXXX.  ",
"  .XXXXXX..      XX ..XXXXXX.. XX      ..XXXXXX.  ",
"  ...XXX.XX.....XXXX          XXXX.....XX.XXX...  ",
"   ...  XXXXXXXXXXXXXX......XXXXXXXXXXXXXX  ...   ",
"   ...  XXXXXXXXXXXXXX......XXXXXXXXXXXXXX  ...   ",
"        .XXXXXXXX..XXXXXXXXXXXX..XXXXXXXX.        ",
"        .XXXXXXXX..XXXXXXXXXXXX..XXXXXXXX.        ",
"   ...  ...XXXXXX  XXXXXXXXXXXX  XXXXXX...  ...   ",
"  ...... .......   .XXXXXXXX...   ....... ......  ",
"  ...... .......   .XXXXXXXX...   ....... ......  ",
"XX ...  .       .  ...XXXXXX...  .       .  ... XX",
"XXX   ............. .......... .............   XXX",
"XXX   ............. .......... .............   XXX",
"XXXXX ........  ....          ....  ........ XXXXX",
"XXXXXX  ..... ......................  ....  XXXXXX",
"XXXXXX  ..... ......................  ....  XXXXXX",
"XXXXXXXX        ......      ......        XXXXXXXX",
"XXXXXXXX        ......      ......        XXXXXXXX",
"XXXXXXXXXXXXXX                      XXXXXXXXXXXXXX",
"XXXXXXXXXXXXX   X...          ...X    XXXXXXXXXXXX",
"XXXXXXXXXXXXX   X...          ...X    XXXXXXXXXXXX",
"XXXXXXXXXXXXX XX.  ... .... ...  .XX  XXXXXXXXXXXX",
"XXXXXXXXXXXXX    XXX...XXXX...XXX     XXXXXXXXXXXX",
"XXXXXXXXXXXXX    XXX...XXXX...XXX     XXXXXXXXXXXX",
"XXXXXXXXXXXXX XXXXX.  .XXXX.  .XXXXX  XXXXXXXXXXXX",
"XXXXXXXXXXXXX XXX..   .XXXX.   ..XXX  XXXXXXXXXXXX",
"XXXXXXXXXXXXX XXX..   .XXXX.   ..XXX  XXXXXXXXXXXX",
"XXXXXXXXXXXXX          ....           XXXXXXXXXXXX",
"XXXXXXXXXXXXXX                      XXXXXXXXXXXXXX",
"XXXXXXXXXXXXXX                      XXXXXXXXXXXXXX"
};
